<svg xmlns="http://www.w3.org/2000/svg" viewBox="0 0 16 16"><path d="M13.73 8.816c-.07-.258-.336-.41-.594-.343l-1.862.497c-.12.03-.21.11-.275.203L8.97 8 11 6.83c.062.094.155.17.273.202l1.86.498c.043.012.086.017.127.017.214 0 .41-.144.468-.36.07-.26-.084-.524-.343-.594l-1.35-.36 1.248-.722c.232-.133.31-.43.178-.66-.132-.233-.43-.312-.66-.18l-1.25.722.364-1.352c.07-.258-.084-.524-.343-.593-.258-.07-.524.083-.593.342l-.5 1.86c-.032.12-.012.238.038.34l-2.03 1.173V4.818c.113-.008.225-.05.312-.136L10.16 3.32c.19-.19.19-.498 0-.687-.19-.188-.496-.188-.686 0l-.99.99V2.18c0-.266-.216-.484-.484-.484s-.485.217-.485.485v1.442l-.99-.99c-.19-.187-.496-.187-.685.002-.19.19-.19.497 0 .686l1.363 1.363c.087.085.2.127.312.135V7.16l-2.03-1.17c.05-.102.07-.22.04-.34l-.5-1.86c-.07-.26-.34-.416-.594-.343-.258.07-.41.335-.342.594l.362 1.352-1.25-.72c-.23-.134-.527-.055-.66.177-.135.23-.055.527.177.66l1.247.72-1.35.362c-.26.07-.413.335-.344.595.058.215.254.36.468.36.042 0 .084-.006.126-.018l1.862-.5c.12-.03.21-.106.274-.2L7.03 8 5 9.175c-.062-.096-.155-.173-.274-.204l-1.86-.497c-.26-.068-.526.085-.595.343-.068.26.085.524.344.594l1.35.36-1.247.722c-.232.134-.31.43-.178.662.09.155.252.243.42.243.082 0 .165-.02.242-.066l1.248-.72-.363 1.352c-.07.258.084.524.343.593.042.013.084.018.126.018.214 0 .41-.143.468-.36l.5-1.862c.032-.118.012-.235-.038-.337l2.03-1.173v2.345c-.114.007-.226.05-.312.135L5.84 12.682c-.19.19-.19.497 0 .686.095.095.22.142.343.142.124 0 .248-.047.344-.14l.99-.99v1.442c0 .267.216.484.484.484.27 0 .486-.217.486-.484v-1.44l.988.99c.095.094.22.14.343.14.124 0 .248-.046.343-.14.19-.19.19-.496 0-.685l-1.363-1.364c-.087-.087-.2-.13-.31-.136V8.84l2.028 1.172c-.05.102-.07.22-.038.34l.5 1.86c.057.217.253.36.468.36.04 0 .084-.005.126-.017.26-.07.413-.335.344-.594l-.362-1.35 1.25.72c.076.045.158.067.24.067.17 0 .332-.088.42-.243.135-.232.056-.528-.177-.662l-1.248-.72 1.35-.362c.26-.07.412-.335.343-.594z"/></svg>