<svg xmlns="http://www.w3.org/2000/svg" xmlns:xlink="http://www.w3.org/1999/xlink" preserveAspectRatio="xMidYMid" width="64" height="64" viewBox="0 0 64 64">
  <defs>
    <style>
      .cls-1 {
        fill: #000;
        fill-rule: evenodd;
      }
    </style>
  </defs>
  <path fill="#000" d="M58.000,64.000 L34.000,64.000 C31.919,64.000 30.175,62.875 29.099,61.266 L47.553,53.280 C54.573,50.245 57.905,41.968 54.979,34.827 L47.259,16.000 L58.000,16.000 C61.314,16.000 64.000,18.686 64.000,22.000 L64.000,58.000 C64.000,61.314 61.314,64.000 58.000,64.000 ZM44.324,45.937 L22.265,55.511 C19.219,56.833 15.709,55.361 14.426,52.224 L0.485,18.136 C-0.798,14.998 0.630,11.383 3.676,10.061 L25.736,0.486 C28.782,-0.836 32.291,0.636 33.574,3.773 L47.516,37.861 C48.799,40.999 47.370,44.615 44.324,45.937 Z" class="cls-1"/>
</svg>
