<svg xmlns="http://www.w3.org/2000/svg" xmlns:xlink="http://www.w3.org/1999/xlink" preserveAspectRatio="xMidYMid" width="64" height="64" viewBox="0 0 64 64">
  <defs>
    <style>
      .cls-1 {
        fill: #000;
        fill-rule: evenodd;
      }
    </style>
  </defs>
  <path d="M60.000,64.000 L52.000,64.000 C49.791,64.000 48.000,62.209 48.000,60.000 L48.000,4.000 C48.000,1.791 49.791,-0.000 52.000,-0.000 L60.000,-0.000 C62.209,-0.000 64.000,1.791 64.000,4.000 L64.000,60.000 C64.000,62.209 62.209,64.000 60.000,64.000 ZM36.000,64.000 L28.000,64.000 C25.791,64.000 24.000,62.209 24.000,60.000 L24.000,24.000 C24.000,21.791 25.791,20.000 28.000,20.000 L36.000,20.000 C38.209,20.000 40.000,21.791 40.000,24.000 L40.000,60.000 C40.000,62.209 38.209,64.000 36.000,64.000 ZM12.000,64.000 L4.000,64.000 C1.791,64.000 -0.000,62.209 -0.000,60.000 L-0.000,44.000 C-0.000,41.791 1.791,40.000 4.000,40.000 L12.000,40.000 C14.209,40.000 16.000,41.791 16.000,44.000 L16.000,60.000 C16.000,62.209 14.209,64.000 12.000,64.000 Z" class="cls-1"/>
</svg>
