<svg xmlns="http://www.w3.org/2000/svg" xmlns:xlink="http://www.w3.org/1999/xlink" preserveAspectRatio="xMidYMid" width="64" height="64" viewBox="0 0 64 64">
  <defs>
    <style>
      .cls-1 {
        fill: #000;
        fill-rule: evenodd;
      }
    </style>
  </defs>
  <path d="M32.001,63.999 C25.713,63.999 19.867,62.159 14.921,59.027 L-0.001,64.001 L4.972,49.079 C1.840,44.133 0.000,38.287 0.000,31.999 C0.000,14.325 14.327,-0.001 32.001,-0.001 C49.674,-0.001 64.002,14.325 64.002,31.999 C64.002,49.673 49.674,63.999 32.001,63.999 ZM20.000,28.001 L12.000,28.001 L12.000,36.001 L20.000,36.001 L20.000,28.001 ZM36.000,28.001 L28.000,28.001 L28.000,36.001 L36.000,36.001 L36.000,28.001 ZM52.000,28.001 L44.000,28.001 L44.000,36.001 L52.000,36.001 L52.000,28.001 Z" class="cls-1"/>
</svg>
