<svg xmlns="http://www.w3.org/2000/svg" xmlns:xlink="http://www.w3.org/1999/xlink" preserveAspectRatio="xMidYMid" width="64" height="64" viewBox="0 0 64 64">
  <defs>
    <style>
      .cls-1 {
        fill: #000;
        fill-rule: evenodd;
      }
    </style>
  </defs>
  <path d="M32.000,64.000 C14.327,64.000 -0.000,49.673 -0.000,32.000 C-0.000,14.327 14.327,-0.000 32.000,-0.000 C49.673,-0.000 64.000,14.327 64.000,32.000 C64.000,49.673 49.673,64.000 32.000,64.000 ZM32.000,8.000 C18.745,8.000 8.000,18.745 8.000,32.000 C8.000,45.255 18.745,56.000 32.000,56.000 C45.255,56.000 56.000,45.255 56.000,32.000 C56.000,18.745 45.255,8.000 32.000,8.000 ZM32.000,48.000 C23.163,48.000 16.000,40.837 16.000,32.000 C16.000,23.163 23.163,16.000 32.000,16.000 C40.837,16.000 48.000,23.163 48.000,32.000 C48.000,40.837 40.837,48.000 32.000,48.000 ZM32.000,24.000 C27.582,24.000 24.000,27.582 24.000,32.000 C24.000,36.418 27.582,40.000 32.000,40.000 C36.418,40.000 40.000,36.418 40.000,32.000 C40.000,27.582 36.418,24.000 32.000,24.000 Z" class="cls-1"/>
</svg>
