<svg xmlns="http://www.w3.org/2000/svg" xmlns:xlink="http://www.w3.org/1999/xlink" preserveAspectRatio="xMidYMid" width="72" height="72" viewBox="0 0 72 72">
  <defs>
    <style>
      .cls-1 {
        fill: #000;
        fill-rule: evenodd;
      }
    </style>
  </defs>
  <path d="M36.000,47.993 C19.210,47.993 4.992,37.031 -0.002,24.000 C4.992,10.969 19.210,0.007 36.000,0.007 C52.790,0.007 67.007,10.969 72.002,24.000 C67.007,37.031 52.790,47.993 36.000,47.993 ZM36.000,8.051 C27.171,8.051 20.012,15.191 20.012,24.000 C20.012,32.809 27.171,39.949 36.000,39.949 C44.830,39.949 51.987,32.809 51.987,24.000 C51.987,15.191 44.830,8.051 36.000,8.051 ZM36.000,31.955 C31.597,31.955 28.026,28.394 28.026,24.000 C28.026,19.606 31.597,16.045 36.000,16.045 C40.404,16.045 43.973,19.606 43.973,24.000 C43.973,28.394 40.404,31.955 36.000,31.955 Z" transform="translate(0 12)" class="cls-1"/>
</svg>
